<svg xmlns="http://www.w3.org/2000/svg" viewBox="0 0 1600 900" preserveAspectRatio="xMidYMid slice">
  <defs>
    <linearGradient id="bg" x1="0" y1="0" x2="1" y2="1">
      <stop offset="0%" stop-color="#f0dfc4" />
      <stop offset="45%" stop-color="#d4a26a" />
      <stop offset="100%" stop-color="#a04a2b" />
    </linearGradient>
    <linearGradient id="emerald" x1="0" y1="0" x2="1" y2="1">
      <stop offset="0%" stop-color="#1a7f5a" />
      <stop offset="100%" stop-color="#0e5a37" />
    </linearGradient>
    <pattern id="tile" width="120" height="120" patternUnits="userSpaceOnUse">
      <rect width="120" height="120" fill="none" />
      <path d="M60 0 L120 60 L60 120 L0 60 Z" fill="none" stroke="#1f2a44" stroke-opacity="0.12" stroke-width="2" />
      <circle cx="60" cy="60" r="18" fill="none" stroke="#1a7f5a" stroke-opacity="0.2" stroke-width="2" />
      <path d="M60 12 L108 60 L60 108 L12 60 Z" fill="none" stroke="#b3541e" stroke-opacity="0.18" stroke-width="2" />
    </pattern>
  </defs>
  <rect width="1600" height="900" fill="url(#bg)" />
  <rect width="1600" height="900" fill="url(#tile)" />
  <path d="M0 620 C220 520 420 540 640 660 C860 780 1180 820 1600 720 L1600 900 L0 900 Z" fill="#1f2a44" opacity="0.25" />
  <path d="M0 560 C240 430 520 440 760 540 C1000 640 1300 670 1600 600 L1600 740 L0 740 Z" fill="url(#emerald)" opacity="0.22" />
  <circle cx="220" cy="200" r="120" fill="#1a7f5a" opacity="0.15" />
  <circle cx="1380" cy="260" r="160" fill="#1f2a44" opacity="0.12" />
  <circle cx="1120" cy="620" r="140" fill="#b3541e" opacity="0.14" />
</svg>
